<?xml version="1.0" standalone="no"?>
<!DOCTYPE svg PUBLIC "-//W3C//DTD SVG 20010904//EN" "http://www.w3.org/TR/2001/REC-SVG-20010904/DTD/svg10.dtd">
<svg version="1.0" xmlns="http://www.w3.org/2000/svg" width="300.000000pt" height="300.000000pt"
    viewBox="0 0 300.000000 300.000000" preserveAspectRatio="xMidYMid meet">
    <g transform="translate(0.000000,300.000000) scale(0.100000,-0.100000)" fill="#000000" stroke="none">
        <path d="M1590 2004 c-81 -21 -158 -63 -195 -107 -36 -42 -47 -78 -39 -129 l6
-34 -68 0 c-38 1 -176 0 -306 -2 -223 -2 -239 -3 -258 -22 -30 -30 -27 -94 6
-125 24 -22 25 -26 10 -40 -38 -38 3 -120 72 -146 31 -12 87 -4 120 17 42 27
22 6 -43 -46 -36 -29 -72 -64 -80 -79 -12 -25 -12 -31 4 -57 29 -47 47 -56
130 -64 43 -5 93 -16 109 -24 47 -24 88 -20 115 10 12 14 22 33 22 42 1 10 7
15 15 13 56 -16 90 -12 114 13 22 21 26 35 27 83 0 32 3 52 6 44 13 -32 58
-60 96 -61 46 0 82 -18 120 -59 23 -24 37 -31 67 -31 21 0 45 7 54 15 19 19
30 19 46 0 7 -9 29 -15 51 -15 47 0 79 28 79 68 0 41 8 44 46 15 44 -33 109
-41 152 -19 29 15 32 15 32 1 0 -9 11 -27 25 -40 28 -29 79 -33 110 -9 18 13
20 30 26 187 4 139 9 178 23 205 20 36 15 75 -11 105 -14 15 -37 17 -198 17
-193 0 -205 3 -205 50 0 14 -7 47 -15 74 -38 124 -140 182 -265 150z m139 -39
c65 -33 111 -127 111 -224 l0 -46 214 3 213 3 -2 -48 c-1 -38 -5 -47 -18 -45
-15 3 -17 -16 -17 -188 l0 -190 -50 0 -50 0 0 79 c0 74 -2 82 -33 123 -18 23
-41 44 -51 46 -22 5 -66 -35 -66 -60 0 -21 1 -21 34 -7 20 10 30 9 51 -5 33
-22 34 -68 0 -101 -61 -62 -175 5 -175 102 0 54 18 90 65 132 43 37 102 42
152 11 l32 -19 -3 37 -4 37 -146 3 -146 3 0 -191 0 -190 -45 0 -45 0 0 190 0
190 -30 0 -30 0 0 -190 0 -190 -49 0 c-45 0 -49 2 -54 29 -8 36 -57 61 -124
61 l-49 0 -27 55 -26 54 45 37 45 37 -31 19 c-62 37 -74 132 -25 180 22 21 22
24 8 40 -21 23 -19 85 4 117 65 88 243 147 322 106z m-410 -261 c29 -6 31 -9
31 -50 0 -37 -3 -44 -20 -44 -19 0 -20 -7 -20 -190 l0 -190 -45 0 -45 0 0 179
c0 136 -3 181 -13 190 -11 8 -17 -1 -30 -43 -13 -41 -17 -92 -17 -224 l0 -172
-41 0 c-26 0 -46 6 -53 15 -13 18 -127 39 -165 30 -22 -4 -29 0 -48 34 l-22
39 104 78 c102 78 118 94 92 94 -8 0 -24 11 -37 25 -29 31 -34 31 -48 -1 -17
-36 -76 -59 -113 -43 -27 11 -79 62 -79 77 0 4 18 17 40 30 39 22 39 22 50 2
15 -28 25 -25 44 14 27 57 25 59 -64 54 l-80 -5 0 49 0 49 240 -3 c132 -2 240
0 240 5 0 9 56 9 99 1z m595 -142 c2 -4 -2 -16 -10 -27 -11 -14 -17 -16 -26
-7 -8 8 -8 15 2 27 14 16 26 19 34 7z m-538 -71 c-13 -20 -26 -11 -26 16 0 25
1 26 16 11 9 -9 13 -21 10 -27z" />
        <path d="M1565 1862 c-33 -16 -66 -36 -74 -45 -12 -16 -10 -16 29 -2 53 19 64
19 105 0 34 -17 55 -50 55 -90 0 -22 5 -25 35 -25 30 0 35 3 35 25 0 57 -22
125 -47 145 -35 27 -67 25 -138 -8z" />
        <path d="M1537 1724 c-4 -4 -4 -18 -1 -31 9 -36 -20 -73 -58 -73 -28 0 -30 -2
-18 -14 8 -7 31 -16 51 -19 31 -4 41 -1 63 22 21 22 25 34 21 66 -2 22 -4 43
-4 48 -1 9 -45 10 -54 1z" />
        <path d="M1541 1461 l-55 -48 35 -6 c18 -3 44 -8 57 -12 21 -7 22 -5 22 54 0
33 -1 61 -2 61 -2 0 -28 -22 -57 -49z" />
        <path d="M1009 1593 c6 -10 19 -28 29 -41 21 -27 35 -18 47 31 7 27 6 27 -39
27 -42 0 -46 -2 -37 -17z" />
        <path d="M1028 1316 c-27 -24 -27 -24 -5 -30 40 -10 47 -7 47 24 0 36 -7 37
-42 6z" />
    </g>
</svg>